<?xml version="1.0" encoding="UTF-8"?>
<svg id="Layer_1" xmlns="http://www.w3.org/2000/svg" viewBox="0 0 512 512">
  <path id="Anchor_House" d="M437.64,456.05L400.26,9.51c-.51-6.06-6.1-10.39-12.1-9.36l-90.37,15.54h0l-175.84,29.16h0l-38.95,6.46c-5.65.94-9.47,6.28-8.54,11.93l72.97,440.08c.94,5.65,6.28,9.47,11.93,8.54l92.11-15.27,177.51-29.43c5.33-.88,9.09-5.71,8.64-11.1ZM318.53,381.11l-72.54,12.03c-5.65.94-10.99-2.89-11.93-8.54l-39.78-239.93c-.94-5.65,2.89-10.99,8.54-11.93l92.16-15.28c5.98-.99,11.54,3.34,12.04,9.38l20.16,243.18c.45,5.38-3.31,10.21-8.64,11.09Z"/>
</svg>