<?xml version="1.0" encoding="UTF-8"?>
<svg id="Layer_1" xmlns="http://www.w3.org/2000/svg" viewBox="0 0 512 512">
  <path id="Blackwell_Hall" d="M351.36,403.65l-83.66,12.18c-2.15.31-4.15-1.18-4.46-3.33l-15.06-103.48c-.31-2.15,1.18-4.15,3.33-4.46l64.91-9.45c2.15-.31,3.64-2.31,3.33-4.46l-2.86-19.66c-.31-2.15,1.18-4.15,3.33-4.46l7.81-1.14c2.15-.31,3.64-2.31,3.33-4.46l-1.39-9.58c-.31-2.15,1.18-4.15,3.33-4.46l64.44-9.38c2.15-.31,3.64-2.31,3.33-4.46l-20.37-139.97c-.31-2.15,1.18-4.15,3.33-4.46l7.28-1.06c2.15-.31,3.64-2.31,3.33-4.46l-.51-3.48h0l-6.63-45.57-4.46-30.66c-.31-2.15-2.31-3.64-4.46-3.33l-79.71,11.6c-2.15.31-3.64,2.31-3.33,4.46l.14.98c.31,2.15-1.18,4.15-3.33,4.46l-6.91,1.01c-2.15.31-4.15-1.18-4.46-3.33h0c-.31-2.11-2.24-3.59-4.35-3.34l-162.22,18.96c-2.2.26-3.76,2.28-3.44,4.48l3.08,21.19,34.64,238.04c.31,2.15,2.31,3.64,4.46,3.33l.88-.13c2.18-.32,4.2,1.22,4.47,3.4l25.79,203.4c.28,2.19,2.29,3.72,4.47,3.4l87.13-12.68h0l87.56-12.74c2.15-.31,3.64-2.31,3.33-4.46l-10.93-75.09c-.31-2.15-2.31-3.64-4.46-3.33ZM246.83,232.43l-4.52.66c-2.15.31-4.15-1.18-4.46-3.33l-17.59-120.87c-.31-2.15,1.18-4.15,3.33-4.46l71.22-10.37c2.15-.31,4.15,1.18,4.46,3.33l17.33,119.11c.31,2.15-1.18,4.15-3.33,4.46l-17.65,2.57c-2.15.31-3.64,2.31-3.33,4.46l.38,2.59c.31,2.15-1.18,4.15-3.33,4.46l-33.47,4.87c-2.15.31-4.15-1.18-4.46-3.33l-.12-.82c-.31-2.15-2.31-3.64-4.46-3.33Z"/>
</svg>