<?xml version="1.0" encoding="UTF-8"?>
<svg id="Layer_1" xmlns="http://www.w3.org/2000/svg" viewBox="0 0 512 512">
  <path id="Bowles_Hall" d="M511.12,319.97c1.82-3.15.74-7.17-2.41-8.99l-14.18-8.19h0L219.01,143.73c-3.15-1.82-4.23-5.84-2.41-8.99l4.14-7.17c1.82-3.15.74-7.17-2.41-8.99l-58.99-34.06c-3.15-1.82-7.17-.74-8.99,2.41l-4.26,7.37c-1.82,3.15-5.84,4.23-8.99,2.41l-14.75-8.51c-3.15-1.82-4.23-5.84-2.41-8.99l2.39-4.14c1.82-3.15.74-7.17-2.41-8.99l-56.13-32.41c-3.15-1.82-7.17-.74-8.99,2.41L.88,129.48c-1.82,3.15-.74,7.17,2.41,8.99l56.13,32.41c3.15,1.82,7.17.74,8.99-2.41l1.5-2.6c1.82-3.15,5.84-4.23,8.99-2.41l20.45,11.81h0l41.97,24.23c3.15,1.82,4.23,5.84,2.41,8.99l-86.8,150.34c-1.82,3.15-5.84,4.23-8.99,2.41l-7.18-4.14c-3.15-1.82-7.17-.74-8.99,2.41l-12.68,21.96c-1.82,3.15-.74,7.17,2.41,8.99l7.17,4.14c3.15,1.82,4.23,5.84,2.41,8.99h0c-1.82,3.15-.74,7.17,2.41,8.99l56.13,32.41c3.15,1.82,7.17.74,8.99-2.41l114.53-198.37c1.82-3.15,5.84-4.23,8.99-2.41l171.34,98.92c3.15,1.82,4.23,5.84,2.41,8.99l-44.28,76.7c-1.82,3.15-.74,7.17,2.41,8.99l67.85,39.17h0l6.52,3.77c3.15,1.82,7.17.74,8.99-2.41l18.06-31.28c1.82-3.15.74-7.17-2.41-8.99l-.82-.48c-3.15-1.82-4.23-5.84-2.41-8.99l61.32-106.21Z"/>
</svg>