<?xml version="1.0" encoding="UTF-8"?>
<svg id="Layer_1" xmlns="http://www.w3.org/2000/svg" viewBox="0 0 512 512">
  <path id="Channing_Bowditch" d="M507.85,263.95l2.2-.36c1.27-.21,2.13-1.41,1.92-2.68l-15.19-92.7c-.21-1.27.65-2.47,1.92-2.68l5.22-.86c1.27-.21,2.13-1.41,1.92-2.68l-11.25-68.65c-.21-1.27-1.41-2.13-2.68-1.92l-67.32,11.04c-1.27.21-2.13,1.41-1.92,2.68l.62,3.76c.21,1.27-.65,2.47-1.92,2.68l-14.26,2.34c-1.27.21-2.47-.65-2.68-1.92l-.62-3.76c-.21-1.27-1.41-2.13-2.68-1.92l-67.32,11.04c-1.27.21-2.13,1.41-1.92,2.68l.62,3.76c.21,1.27-.65,2.47-1.92,2.68l-123.68,20.27c-1.27.21-2.47-.65-2.68-1.92l-.47-2.85c-.21-1.27-1.41-2.13-2.68-1.92l-67.32,11.04c-1.27.21-2.13,1.41-1.92,2.68l.47,2.85c.21,1.27-.65,2.47-1.92,2.68l-25.35,4.16c-1.27.21-2.47-.65-2.68-1.92l-.33-2.01c-.21-1.27-1.41-2.13-2.68-1.92l-90.78,14.88c-1.27.21-2.13,1.41-1.92,2.68l2.94,17.93c.21,1.27-.65,2.47-1.92,2.68l-5.68.93c-1.27.21-2.13,1.41-1.92,2.68l10.52,64.17c.21,1.27,1.41,2.13,2.68,1.92l5.74-.94c1.27-.21,2.47.65,2.68,1.92l.17,1.04-.18.03,15.05,91.84h0l6.18,37.7c.21,1.27,1.41,2.13,2.68,1.92l3.65-.6c1.27-.21,2.47.65,2.68,1.92l3.01,18.36c.21,1.27,1.41,2.13,2.68,1.92l127.52-20.9c1.27-.21,2.13-1.41,1.92-2.68l-3.01-18.36c-.21-1.27.65-2.47,1.92-2.68l9.28-1.52c1.27-.21,2.13-1.41,1.92-2.68l-14.3-87.24c-.21-1.27-1.41-2.13-2.68-1.92l-9.28,1.52c-1.27.21-2.47-.65-2.68-1.92l-5.11-31.19c-.21-1.27.65-2.47,1.92-2.68l9.51-1.56c1.27-.21,2.47.65,2.68,1.92l4.12,25.15c.21,1.27,1.41,2.13,2.68,1.92l39.13-6.41c1.27-.21,2.13-1.41,1.92-2.68l-4.12-25.15c-.21-1.27.65-2.47,1.92-2.68l11.41-1.87c1.27-.21,2.47.65,2.68,1.92l4.93,30.1c.21,1.27-.65,2.47-1.92,2.68l-8.84,1.45c-1.27.21-2.13,1.41-1.92,2.68l14.71,89.72c.21,1.27,1.41,2.13,2.68,1.92l8.84-1.45c1.27-.21,2.47.65,2.68,1.92l2.39,14.61c.21,1.27,1.41,2.13,2.68,1.92l26.04-4.27c1.27-.21,2.47.65,2.68,1.92h0c.21,1.27,1.41,2.13,2.68,1.92l39.13-6.41c1.27-.21,2.13-1.41,1.92-2.68h0c-.21-1.27.65-2.47,1.92-2.68l26.54-4.35c1.27-.21,2.13-1.41,1.92-2.68l-2.39-14.61c-.21-1.27.65-2.47,1.92-2.68l7.37-1.21c1.27-.21,2.13-1.41,1.92-2.68l-14.71-89.72c-.21-1.27-1.41-2.13-2.68-1.92l-7.37,1.21c-1.27.21-2.47-.65-2.68-1.92l-4.93-30.1c-.21-1.27.65-2.47,1.92-2.68l.61-.1c1.27-.21,2.47.65,2.68,1.92l.86,5.24c.21,1.27,1.41,2.13,2.68,1.92l22.01-3.61c1.27-.21,2.47.65,2.68,1.92l9.1,55.51c.21,1.27,1.41,2.13,2.68,1.92l.46-.07c1.27-.21,2.47.65,2.68,1.92l3.09,18.85c.21,1.27,1.41,2.13,2.68,1.92l25.54-4.19c1.27-.21,2.47.65,2.68,1.92l.08.47c.21,1.27,1.41,2.13,2.68,1.92l48.35-7.92c1.27-.21,2.13-1.41,1.92-2.68l-.08-.47c-.21-1.27.65-2.47,1.92-2.68l27.44-4.5c1.27-.21,2.13-1.41,1.92-2.68l-3.09-18.85c-.21-1.27.65-2.47,1.92-2.68Z"/>
</svg>