<?xml version="1.0" encoding="UTF-8"?>
<svg id="Layer_1" xmlns="http://www.w3.org/2000/svg" viewBox="0 0 512 512">
  <path id="CK_Rose_Garden" d="M320.05,417.39l20.52-.76,20.52-.76c.27-.01.51-.13.68-.31s.27-.43.26-.71l-.19-4.99-.19-4.99c-.01-.27.09-.52.26-.71s.41-.3.68-.31l9.98-.37,9.98-.37c.27-.01.51-.13.68-.31s.27-.43.26-.71l-.05-1.39-.05-1.39h0v-.3s-.02-.3-.02-.3l-.04-1.17-.04-1.17h0l-.88-23.67-.88-23.67c-.01-.27-.13-.51-.31-.68s-.43-.27-.71-.26l-9.25.34-9.25.34h0l-13.98.52-13.98.52c-.27.01-.51.13-.68.31s-.27.43-.26.71l.12,3.18.12,3.18c.01.27-.09.52-.26.71s-.41.3-.68.31l-2.8.1-2.8.1-.02-.57-.02-.57-17.2.64-17.2.64c-.27.01-.51.13-.68.31s-.27.43-.26.71l.07,1.93.07,1.93c.01.27-.09.52-.26.71s-.41.3-.68.31l-13.65.51-13.65.51c-.27.01-.51.13-.68.31s-.27.43-.26.71l.22,5.97.22,5.97c.01.27-.09.52-.26.71s-.41.3-.68.31l-1.74.06-1.74.06c-.27.01-.51.13-.68.31s-.27.43-.26.71l.5,13.29.5,13.29c.01.27.13.51.31.68s.43.27.71.26l1.85-.07,1.85-.07c.27-.01.52.09.71.26s.3.41.31.68l.35,9.49.35,9.49c.01.27.13.51.31.68s.43.27.71.26l7.42-.28,7.42-.28c.27-.01.51-.13.68-.31s.27-.43.26-.71v-.24s-.02-.24-.02-.24c-.01-.27.09-.52.26-.71s.41-.3.68-.31l16.17-.6,16.17-.6c.27-.01.52.09.71.26s.3.41.31.68l.11,2.94.11,2.94c.01.27-.09.52-.26.71s-.41.3-.68.31l-10.91.41-10.91.41c-.27.01-.51.13-.68.31s-.27.43-.26.71l.12,3.34.12,3.34h0l.09,2.32.09,2.32.05,1.21.05,1.21h0l.12,3.34.12,3.34c.01.27.13.51.31.68s.43.27.71.26l5.47-.2,5.47-.2c.27-.01.51-.13.68-.31s.27-.43.26-.71l-.11-2.84-.11-2.84c-.01-.27.09-.52.26-.71s.41-.3.68-.31l10.26-.38,10.26-.38c.27-.01.52.09.71.26s.3.41.31.68l.17,4.53.17,4.53c.01.27.13.51.31.68s.43.27.71.26l5.47-.2,5.47-.2c.27-.01.51-.13.68-.31s.27-.43.26-.71l-.48-12.87-.48-12.87c-.01-.27-.13-.51-.31-.68s-.43-.27-.71-.26l-5.47.2-5.47.2c-.27.01-.51.13-.68.31s-.27.43-.26.71h0c.01.27-.09.52-.26.71s-.41.3-.68.31l-3.12.12-3.12.12c-.27.01-.52-.09-.71-.26s-.3-.41-.31-.68l-.24-6.42-.24-6.42c-.01-.27.09-.52.26-.71s.41-.3.68-.31ZM279.65,399.71l-1.46.05-1.46.05c-.27.01-.52-.09-.71-.26s-.3-.41-.31-.68l-.28-7.51-.28-7.51c-.01-.27.09-.52.26-.71s.41-.3.68-.31l7.58-.28,7.58-.28c.27-.01.51-.13.68-.31s.27-.43.26-.71l-.03-.77-.03-.77c-.01-.27.09-.52.26-.71s.41-.3.68-.31l16.71-.62,16.71-.62c.27-.01.51-.13.68-.31s.27-.43.26-.71l-.12-3.23-.12-3.23c-.01-.27.09-.52.26-.71s.41-.3.68-.31l12.8-.48,12.8-.48h0l3.98-.15,3.98-.15c.27-.01.52.09.71.26s.3.41.31.68l.51,13.72.51,13.72c.01.27-.09.52-.26.71s-.41.3-.68.31l-.73.03-.73.03h0s-21.82.81-21.82.81l-21.82.81c-.27.01-.51.13-.68.31s-.27.43-.26.71l.1,2.55.1,2.55c.01.27-.09.52-.26.71s-.41.3-.68.31l-17.06.64-17.06.64c-.27.01-.52-.09-.71-.26s-.3-.41-.31-.68l-.1-2.8-.1-2.8c-.01-.27-.13-.51-.31-.68s-.43-.27-.71-.26Z"/>
  <path id="CK_Building_1" d="M143.32,286.85l-6.36.44-6.36.44c-.84.06-1.63-.23-2.22-.74s-.98-1.25-1.04-2.09l-2.15-30.92-2.15-30.92c-.06-.84.23-1.63.74-2.22s1.25-.98,2.09-1.04l6.36-.44,6.36-.44c.84-.06,1.63.23,2.22.74s.98,1.25,1.04,2.09l2.15,30.92,2.15,30.92c.06.84-.23,1.63-.74,2.22s-1.25.98-2.09,1.04Z"/>
  <path id="CK_Building_2" d="M83.54,199.33l3.31-1.56,3.31-1.56c.69-.32,1.18-.9,1.42-1.56s.22-1.42-.1-2.1l-18.28-38.85-18.28-38.85c-.32-.69-.9-1.18-1.56-1.42s-1.42-.22-2.1.1l-3.31,1.56-3.31,1.56c-.69.32-1.18.9-1.42,1.56s-.22,1.42.1,2.1l3.22,6.85,3.22,6.85c.32.69.34,1.44.1,2.1s-.73,1.23-1.42,1.56l-12.45,5.86-12.45,5.86c-.69.32-1.18.9-1.42,1.56s-.22,1.42.1,2.1l2.03,4.32,2.03,4.32c.32.69.34,1.44.1,2.1s-.73,1.23-1.42,1.56l-.71.34-.71.34c-.69.32-1.18.9-1.42,1.56s-.22,1.42.1,2.1h0c.32.69.34,1.44.1,2.1s-.73,1.23-1.42,1.56l-9.21,4.33-9.21,4.33c-.69.32-1.18.9-1.42,1.56s-.22,1.42.1,2.1l3.27,6.94,3.27,6.94c.32.69.9,1.18,1.56,1.42s1.42.22,2.1-.1l9.57-4.5,9.57-4.5c.69-.32,1.44-.34,2.1-.1s1.23.73,1.56,1.42l5.53,11.76,5.53,11.76c.32.69.9,1.18,1.56,1.42s1.42.22,2.1-.1l3.31-1.56,3.31-1.56c.69-.32,1.18-.9,1.42-1.56s.22-1.42-.1-2.1l-9.78-20.8-9.78-20.8c-.32-.69-.34-1.44-.1-2.1s.73-1.23,1.42-1.56l9.49-4.46,9.49-4.46c.69-.32,1.44-.34,2.1-.1s1.23.73,1.56,1.42l9.32,19.82,9.32,19.82c.32.69.9,1.18,1.56,1.42s1.42.22,2.1-.1Z"/>
  <path id="CK_Building_3" d="M135.48,182.18h-.21s-.21.03-.21.03c-.86.05-1.66-.25-2.26-.78s-.99-1.29-1.05-2.15l-.35-5.87-.35-5.87c-.05-.86.25-1.66.78-2.26s1.29-.99,2.15-1.05h0c.86-.05,1.62-.45,2.15-1.05s.83-1.4.78-2.26l-.75-12.35-.75-12.35c-.04-.72.16-1.42.56-1.98s.97-1,1.67-1.2l5.78-1.73,5.78-1.73c.83-.25,1.47-.81,1.85-1.51s.49-1.55.24-2.38l-.92-3.07-.92-3.07c-.24-.81-.78-1.45-1.47-1.83s-1.51-.51-2.33-.29l-14.77,3.95-14.77,3.95c-.72.19-1.32.62-1.73,1.19s-.63,1.27-.58,2.01l1.94,32.09,1.94,32.09c.05.86.45,1.62,1.05,2.15s1.4.83,2.26.78h.07s.07,0,.07,0h0l4.99-.3,4.99-.3.8-.05.8-.05h0l1.77-.11,1.77-.11c.86-.05,1.62-.45,2.15-1.05s.83-1.4.78-2.26l-.19-3.16-.19-3.16c-.05-.86-.45-1.62-1.05-2.15s-1.4-.83-2.26-.78Z"/>
  <path id="CK_Building_4" d="M167.82,97.92l-2.15.69-2.15.69c-.29.09-.58.06-.83-.07s-.45-.35-.54-.64l-2.43-7.61-2.43-7.61c-.09-.29-.06-.58.07-.83s.35-.45.64-.54l2.43-.78,2.43-.78c.29-.09.51-.29.64-.54s.16-.55.07-.83l-4.41-13.79-4.41-13.79c-.08-.24-.07-.5.02-.73s.25-.42.47-.55l6.96-4.02,6.96-4.02c.26-.15.44-.39.51-.66s.04-.57-.11-.83l-2.2-3.81-2.2-3.81c-.15-.26-.39-.44-.66-.51s-.57-.04-.83.11l-9.7,5.6-9.7,5.6s-.07.04-.1.05-.07.03-.11.04l-4.72,1.51-4.72,1.51c-.29.09-.51.29-.64.54s-.16.55-.07.83l6,18.75,6,18.75h0l2.6,8.13,2.6,8.13c.09.29.06.58-.07.83s-.35.45-.64.54h0c-.29.09-.51.29-.64.54s-.16.55-.07.83l2.52,7.89,2.52,7.89c.09.29.29.51.54.64s.55.16.83.07l8.71-2.79,8.71-2.79c.29-.09.51-.29.64-.54s.16-.55.07-.83l-2.52-7.89-2.52-7.89c-.09-.29-.29-.51-.54-.64s-.55-.16-.83-.07Z"/>
  <path id="CK_Building_5" d="M71.89,48.19l-.16-4.43-.16-4.43c-.01-.28-.13-.52-.32-.7s-.44-.28-.72-.27l-9.18.34-9.18.34c-.28.01-.52.13-.7.32s-.28.44-.27.72l.16,4.43.16,4.43c.01.28.13.52.32.7s.44.28.72.27l2.14-.08,2.14-.08c.28-.01.53.09.72.27s.31.42.32.7l.1,2.72.1,2.72c.01.28.13.52.32.7s.44.28.72.27l.7-.03.7-.03c.28-.01.53.09.72.27s.31.42.32.7l.15,4.02.15,4.02c.01.28.13.52.32.7s.44.28.72.27l3.35-.12,3.35-.12c.28-.01.52-.13.7-.32s.28-.44.27-.72l-.29-7.74-.29-7.74c-.01-.28.09-.53.27-.72s.42-.31.7-.32h0c.28-.01.52-.13.7-.32s.28-.44.27-.72Z"/>
  <path id="CK_Building_6" d="M301.75,295.92c.26-.02.49-.14.65-.33s.25-.43.23-.69l-.43-6.26-.43-6.26-.38.03-.38.03-.22-3.19-.22-3.19c-.02-.26-.14-.49-.33-.65s-.43-.25-.69-.23l-5.78.4-5.78.4c-.26.02-.49.14-.65.33s-.25.43-.23.69l.4,5.78.4,5.78c.02.26.14.49.33.65s.43.25.69.23h0c.26-.02.51.07.69.23s.31.39.33.65l.19,2.71.19,2.71c.02.26.14.49.33.65s.43.25.69.23l5.21-.36,5.21-.36Z"/>
  <path id="CK_Building_7" d="M286.09,331.49l-1.4-20.18-1.4-20.18c-.03-.44-.24-.83-.55-1.1s-.72-.42-1.16-.39l-.35.02-.35.02c-.44.03-.85-.12-1.16-.39s-.51-.65-.55-1.1l-.24-3.46-.24-3.46c-.03-.44-.24-.83-.55-1.1s-.72-.42-1.16-.39l-.36.02-.36.02c-.44.03-.85-.12-1.16-.39s-.51-.65-.55-1.1h0c-.03-.44-.24-.83-.55-1.1s-.72-.42-1.16-.39l-14.44,1-14.44,1c-.44.03-.83.24-1.1.55s-.42.72-.39,1.16l.56,8.08.56,8.08c.03.44.24.83.55,1.1s.72.42,1.16.39l8.69-.6,8.69-.6c.44-.03.85.12,1.16.39s.51.65.55,1.1l1.19,17.16,1.19,17.16c.03.44.24.83.55,1.1s.72.42,1.16.39l8.06-.56,8.06-.56c.44-.03.83-.24,1.1-.55s.42-.72.39-1.16Z"/>
  <path id="CK_Building_8" d="M235.95,285.48l-.27-3.86-.27-3.86c-.03-.44-.24-.83-.55-1.1s-.72-.42-1.16-.39l-7.24.5-7.24.5c-.44.03-.85-.12-1.16-.39s-.52-.66-.55-1.1l-.05-.77-.05-.77c-.03-.44-.24-.83-.55-1.1s-.72-.42-1.16-.39l-.5.03-.5.03c-.44.03-.85-.12-1.16-.39s-.52-.66-.55-1.1l-.74-10.66-.74-10.66c-.03-.44.12-.85.39-1.16s.66-.52,1.1-.55l1.5-.1,1.5-.1c.44-.03.83-.24,1.1-.55s.42-.72.39-1.16l-1.01-14.57-1.01-14.57c-.03-.44-.24-.83-.55-1.1s-.72-.42-1.16-.39l-1.16.08-1.16.08c-.44.03-.85-.12-1.16-.39s-.52-.66-.55-1.1h0c-.03-.44-.24-.83-.55-1.1s-.72-.42-1.16-.39l-3.42.24-3.42.24c-.44.03-.85-.12-1.16-.39s-.52-.66-.55-1.1l-.06-.87-.06-.87c-.03-.44-.24-.83-.55-1.1s-.72-.42-1.16-.39l-1.89.13-1.89.13c-.44.03-.83.24-1.1.55s-.42.72-.39,1.16l.12,1.67.12,1.67h0l1.12,16.17,1.12,16.17h0l1.45,20.9,1.45,20.9c.03.44.24.83.55,1.1s.72.42,1.16.39l17.51-1.22,17.51-1.22c.44-.03.83-.24,1.1-.55s.42-.72.39-1.16Z"/>
  <path id="CK_Building_9" d="M237.11,352.62l3.55-.25,3.55-.25c.24-.02.44-.13.59-.29s.23-.39.21-.62l-.31-4.39-.31-4.39c-.02-.24-.13-.44-.29-.59s-.39-.23-.62-.21l-9.21.64-9.21.64h0l-2.09.15-2.09.15c-.24.02-.46-.06-.62-.21s-.28-.35-.29-.59l-1.29-18.56-1.29-18.56c-.02-.24.06-.46.21-.62s.35-.28.59-.29l7.39-.51,7.39-.51c.24-.02.44-.13.59-.29s.23-.39.21-.62l-.37-5.29-.37-5.29c-.02-.24-.13-.44-.29-.59s-.39-.23-.62-.21l-14.18.98-14.18.98h0l-.68.05-.68.05c-.24.02-.44.13-.59.29s-.23.39-.21.62l1.1,15.89,1.1,15.89c.02.24-.06.46-.21.62s-.35.28-.59.29l-7.77.54-7.77.54c-.24.02-.44.13-.59.29s-.23.39-.21.62l.28,4.1.28,4.1c.02.24.13.44.29.59s.39.23.62.21l4.05-.28,4.05-.28c.24-.02.46.06.62.21s.28.35.29.59l1.03,14.8,1.03,14.8c.02.24.13.44.29.59s.39.23.62.21l3.84-.27,3.84-.27c.24-.02.44-.13.59-.29s.23-.39.21-.62l-.34-4.84-.34-4.84c-.02-.24.06-.46.21-.62s.35-.28.59-.29l6.06-.42,6.06-.42h0l7.32-.51,7.32-.51c.24-.02.44-.13.59-.29s.23-.39.21-.62h0c-.02-.24.06-.46.21-.62s.35-.28.59-.29Z"/>
  <path id="CK_Building_10" d="M164.47,330.34c-.41.03-.77.22-1.02.51s-.39.67-.36,1.08l.03.44.03.44-.4.03-.4.03-.05-.72-.05-.72c-.03-.41-.22-.77-.51-1.02s-.67-.39-1.08-.36l-2.28.16-2.28.16c-.41.03-.79-.11-1.08-.36s-.48-.61-.51-1.02l-.58-8.3-.58-8.3c-.03-.41.11-.79.36-1.08s.61-.48,1.02-.51l21.93-1.52,21.93-1.52c.41-.03.77-.22,1.02-.51s.39-.67.36-1.08l-.04-.58-.04-.58h0l-.25-3.65-.25-3.65-.12-1.68-.12-1.68h0l-.07-1.07-.07-1.07c-.03-.41-.22-.77-.51-1.02s-.67-.39-1.08-.36l-26.86,1.87-26.86,1.87c-.41.03-.77.22-1.02.51s-.39.67-.36,1.08l.02.33.02.33c.03.41-.11.79-.36,1.08s-.61.48-1.02.51l-4.43.31-4.43.31c-.41.03-.79-.11-1.08-.36s-.48-.61-.51-1.02l-.02-.33-.02-.33c-.03-.41-.22-.77-.51-1.02s-.67-.39-1.08-.36l-8.7.6-8.7.6c-.41.03-.77.22-1.02.51s-.39.67-.36,1.08l.26,3.69.26,3.69.23,3.29.23,3.29c.03.41.22.77.51,1.02s.67.39,1.08.36l13.08-.91,13.08-.91c.41-.03.79.11,1.08.36s.48.61.51,1.02l.58,8.3.58,8.3c.03.41.22.77.51,1.02s.67.39,1.08.36l2.44-.17,2.44-.17h0s0,0,0,0h0c-.41.03-.77.22-1.02.51s-.39.67-.36,1.08l1.16,16.65,1.16,16.65c.03.41.22.77.51,1.02s.67.39,1.08.36l4.44-.31,4.44-.31c.41-.03.77-.22,1.02-.51s.39-.67.36-1.08l-.86-12.32-.86-12.32c-.03-.41.11-.79.36-1.08s.61-.48,1.02-.51l.78-.05.78-.05c.41-.03.79.11,1.08.36s.48.61.51,1.02l.05.67.05.67c.03.41.22.77.51,1.02s.67.39,1.08.36l8.92-.62,8.92-.62c.41-.03.77-.22,1.02-.51s.39-.67.36-1.08l-.33-4.72-.33-4.72c-.03-.41-.22-.77-.51-1.02s-.67-.39-1.08-.36l-8.92.62-8.92.62Z"/>
  <path id="CK_Building_11" d="M100.71,318.01l-31.32,2.18-31.32,2.18c-.83.06-1.61-.23-2.19-.73s-.97-1.24-1.03-2.07l-.5-7.23-.5-7.23c-.06-.83.23-1.61.73-2.19s1.24-.97,2.07-1.03l31.32-2.18,31.32-2.18c.83-.06,1.61.23,2.19.73s.97,1.24,1.03,2.07l.5,7.23.5,7.23c.06.83-.23,1.61-.73,2.19s-1.24.97-2.07,1.03Z"/>
  <path id="CK_Building_12" d="M133.09,418.43l-2.11-30.44-2.11-30.44c-.02-.28-.15-.52-.35-.69s-.46-.27-.74-.25l-7.77.54-7.77.54h0s-32.32,2.24-32.32,2.24l-32.32,2.24c-.28.02-.52.15-.69.35s-.27.46-.25.74l.24,3.45.24,3.45c.02.28-.08.54-.25.74s-.42.33-.69.35h0c-.28.02-.52.15-.69.35s-.27.46-.25.74l.19,2.8.19,2.8c.02.28.15.52.35.69s.46.27.74.25l32.82-2.28,32.82-2.28c.28-.02.54.08.74.25s.33.42.35.69l1,14.34,1,14.34c.02.28-.08.54-.25.74s-.42.33-.69.35l-2.34.16-2.34.16c-.28.02-.52.15-.69.35s-.27.46-.25.74l.22,3.13.22,3.13c.02.28.15.52.35.69s.46.27.74.25l2.34-.16,2.34-.16c.28-.02.54.08.74.25s.33.42.35.69l.05.72.05.72.17,2.46.17,2.46h0l.22,3.16.22,3.16c.02.28.15.52.35.69s.46.27.74.25l3.13-.22,3.13-.22c.28-.02.52-.15.69-.35s.27-.46.25-.74l-.18-2.66-.18-2.66c-.02-.28.08-.54.25-.74s.42-.33.69-.35l3.13-.22,3.13-.22c.28-.02.52-.15.69-.35s.27-.46.25-.74Z"/>
  <path id="CK_Building_13" d="M141.36,407.95l-.61-8.76-.61-8.76c-.06-.92.25-1.78.81-2.43s1.37-1.08,2.29-1.14l18.87-1.31,18.87-1.31c.92-.06,1.78.25,2.43.81s1.08,1.37,1.14,2.29l.61,8.76.61,8.76c.06.92-.25,1.78-.81,2.43s-1.37,1.08-2.29,1.14l-18.87,1.31-18.87,1.31c-.92.06-1.78-.25-2.43-.81s-1.08-1.37-1.14-2.29Z"/>
  <path id="CK_Building_14" d="M49.91,348.36l-.46-6.66-.46-6.66c-.06-.82-.44-1.55-1.02-2.05s-1.35-.78-2.17-.73h0c-.82.06-1.59-.22-2.17-.73s-.96-1.22-1.02-2.05l-.75-10.77-.75-10.77c-.06-.82-.44-1.55-1.02-2.05s-1.35-.78-2.17-.73l-8.76.61-8.76.61c-.82.06-1.55.44-2.05,1.02s-.78,1.35-.73,2.17l1.78,25.68,1.78,25.68c.06.82.44,1.55,1.02,2.05s1.35.78,2.17.73l8.76-.61,8.76-.61c.82-.06,1.55-.44,2.05-1.02s.78-1.35.73-2.17l-.16-2.29-.16-2.29c-.06-.82.22-1.59.73-2.17s1.22-.96,2.05-1.02h0c.82-.06,1.55-.44,2.05-1.02s.78-1.35.73-2.17Z"/>
  <path id="CK_Building_15" d="M43.3,476.94l-.15-3.73-.15-3.73c-.03-.81.27-1.56.78-2.12s1.24-.91,2.05-.95l10.67-.42,10.67-.42c.81-.03,1.56.27,2.12.78s.91,1.24.95,2.05l.15,3.73.15,3.73c.03.81-.27,1.56-.78,2.12s-1.24.91-2.05.95l-10.67.42-10.67.42c-.81.03-1.56-.27-2.12-.78s-.91-1.24-.95-2.05Z"/>
  <path id="CK_Building_16" d="M134.51,471.79l-.19-2.81-.19-2.81c-.06-.79-.43-1.49-.98-1.97s-1.3-.76-2.09-.7l-1.58.11-1.58.11c-.79.06-1.54-.22-2.09-.7s-.93-1.18-.98-1.97l-.74-10.7-.74-10.7c-.06-.79-.43-1.49-.98-1.97s-1.3-.76-2.09-.7l-4.85.34-4.85.34c-.79.06-1.49.43-1.97.98s-.76,1.3-.7,2.09l.74,10.7.74,10.7c.06.79-.22,1.54-.7,2.09s-1.18.93-1.97.98l-12.94.9-12.94.9c-.79.06-1.49.43-1.97.98s-.76,1.3-.7,2.09l.19,2.81.19,2.81c.06.79.43,1.49.98,1.97s1.3.76,2.09.7l14.37-1,14.37-1v.03s0,.03,0,.03l7.73-.54,7.73-.54v-.03s0-.03,0-.03l3.02-.21,3.02-.21c.79-.06,1.49-.43,1.97-.98s.76-1.3.7-2.09Z"/>
  <path id="CK_Building_17" d="M200.82,466.14l6.42-.45,6.42-.45c.39-.03.73-.21.97-.48s.37-.64.34-1.03l-.45-6.46-.45-6.46h0l-.5-7.14-.5-7.14c-.03-.39-.21-.73-.48-.97s-.64-.37-1.03-.34l-7.13.5-7.13.5h0l-9.32.65-9.32.65c-.39.03-.75-.11-1.03-.34s-.46-.58-.48-.97l-.65-9.33-.65-9.33c-.03-.39-.21-.73-.48-.97s-.64-.37-1.03-.34l-5.29.37-5.29.37c-.39.03-.73.21-.97.48s-.37.64-.34,1.03l.93,13.34.93,13.34c.03.39-.11.75-.34,1.03s-.58.46-.97.48l-4.52.31-4.52.31c-.39.03-.73.21-.97.48s-.37.64-.34,1.03l.27,3.83.27,3.83c.03.39.21.73.48.97s.64.37,1.03.34l5.22-.36,5.22-.36h0l6-.42,6-.42c.39-.03.73-.21.97-.48s.37-.64.34-1.03h0c-.03-.39.11-.75.34-1.03s.58-.46.97-.48l8.61-.6,8.61-.6c.39-.03.75.11,1.03.34s.46.58.48.97l.4,5.76.4,5.76c.03.39.21.73.48.97s.64.37,1.03.34Z"/>
  <path id="CK_Building_18" d="M260.55,463.84l-6.34.42-6.34.42c-.74.05-1.43-.21-1.95-.66s-.86-1.1-.91-1.84l-.19-2.95-.19-2.95c-.05-.74.21-1.43.66-1.95s1.1-.86,1.84-.91l6.34-.42,6.34-.42c.74-.05,1.43.21,1.95.66s.86,1.1.91,1.84l.19,2.95.19,2.95c.05.74-.21,1.43-.66,1.95s-1.1.86-1.84.91Z"/>
  <path id="CK_Building_19" d="M482.41,446.79l-.13-5.84-.13-5.84c-.01-.55-.25-1.04-.61-1.39s-.87-.56-1.41-.55l-10.66.24-10.66.24c-.55.01-1.05-.2-1.41-.55s-.6-.84-.61-1.39l-.1-4.49-.1-4.49c-.01-.55-.25-1.04-.61-1.39s-.87-.56-1.41-.55h-.49s-.49.02-.49.02v-.06s0-.06,0-.06l-9.95.22-9.95.22c-.55.01-1.05-.2-1.41-.55s-.6-.84-.61-1.39v-.45s-.02-.45-.02-.45c-.01-.55-.25-1.04-.61-1.39s-.87-.56-1.41-.55l-1.27.03-1.27.03c-.55.01-1.04.25-1.39.61s-.56.87-.55,1.41v.45s.02.45.02.45c.01.55-.2,1.05-.55,1.41s-.84.6-1.39.61l-10.39.23-10.39.23c-.55.01-1.04.25-1.39.61s-.56.87-.55,1.41l.06,2.84.06,2.84h0l.22,9.85.22,9.85c.01.55.25,1.04.61,1.39s.87.56,1.41.55l5.84-.13,5.84-.13c.55-.01,1.04-.25,1.39-.61s.56-.87.55-1.41l-.17-7.43-.17-7.43c-.01-.55.2-1.05.55-1.41s.84-.6,1.39-.61l14.75-.33,14.75-.33c.55-.01,1.05.2,1.41.55s.6.84.61,1.39l.05,2.13.05,2.13c.01.55-.2,1.05-.55,1.41s-.84.6-1.39.61h-.24s-.24.01-.24.01c-.55.01-1.04.25-1.39.61s-.56.87-.55,1.41l.03,1.35.03,1.35c.01.55.25,1.04.61,1.39s.87.56,1.41.55h.24s.24-.01.24-.01c.55-.01,1.05.2,1.41.55s.6.84.61,1.39l.04,1.67.04,1.67c.01.55.25,1.04.61,1.39s.87.56,1.41.55l4.82-.11,4.82-.11c.55-.01,1.04-.25,1.39-.61s.56-.87.55-1.41h0c-.01-.55.2-1.05.55-1.41s.84-.6,1.39-.61l7.35-.17,7.35-.17c.55-.01,1.04-.25,1.39-.61s.56-.87.55-1.41Z"/>
  <path id="CK_Building_20" d="M511.98,417.06l-.4-19.12-.4-19.12c0-.21-.09-.4-.24-.54s-.34-.22-.55-.21l-3.19.07-3.19.07c-.21,0-.4.09-.54.24s-.22.34-.21.55l.02.72.02.72c0,.21-.08.41-.21.55s-.33.23-.54.24h0c-.21,0-.4.09-.54.24s-.22.34-.21.55l.1,4.77.1,4.77c0,.21-.08.41-.21.55s-.33.23-.54.24l-.75.02-.75.02c-.21,0-.4.09-.54.24s-.22.34-.21.55l.13,6.34.13,6.34c0,.21.09.4.24.54s.34.22.55.21l.75-.02.75-.02c.21,0,.41.08.55.21s.23.33.24.54l.13,6.48.13,6.48c0,.21.09.4.24.54s.34.22.55.21l3.19-.07,3.19-.07c.21,0,.4-.09.54-.24s.22-.34.21-.55l-.02-.72-.02-.72c0-.21.08-.41.21-.55s.33-.23.54-.24h0c.21,0,.4-.09.54-.24s.22-.34.21-.55Z"/>
  <path id="CK_Building_21" d="M498.69,355.22l-5.43-7.65-5.43-7.65c-.06-.09-.11-.18-.14-.28s-.05-.21-.05-.31l-.02-.95-.02-.95c0-.29-.13-.56-.33-.75s-.46-.3-.76-.3l-12.93.26-12.93.26c-.29,0-.56-.11-.76-.3s-.32-.45-.33-.75l-.03-1.51-.03-1.51c0-.29-.13-.56-.33-.75s-.46-.3-.76-.3l-2.54.05-2.54.05c-.29,0-.56-.11-.76-.3s-.32-.45-.33-.75h0s0-.03,0-.03c0-.29-.13-.56-.33-.75s-.46-.3-.76-.3l-4.77.1-4.77.1c-.29,0-.56.13-.75.33s-.3.46-.3.76h0s0,.03,0,.03c0,.29-.11.56-.3.76s-.45.32-.75.33l-7.47.15-7.47.15c-.29,0-.56.13-.75.33s-.3.46-.3.76l.02,1.07.02,1.07c0,.29-.11.56-.3.76s-.45.32-.75.33l-2.2.04-2.2.04c-.29,0-.56.13-.75.33s-.3.46-.3.76l.08,4.13.08,4.13h-.24s-.24,0-.24,0l.03,1.6.03,1.6c0,.29.13.56.33.75s.46.3.76.3h0c.29,0,.56.11.76.3s.32.45.33.75l.07,3.59.07,3.59c0,.29.13.56.33.75s.46.3.76.3l3.83-.08,3.83-.08c.29,0,.56-.13.75-.33s.3-.46.3-.76l-.04-1.98-.04-1.98c0-.29.11-.56.3-.76s.45-.32.75-.33h.36s.36-.01.36-.01c.29,0,.56-.13.75-.33s.3-.46.3-.76l-.04-2.22-.04-2.22c0-.29.11-.56.3-.76s.45-.32.75-.33l10.15-.2,10.15-.2c.29,0,.56.11.76.3s.32.45.33.75v.16s0,.16,0,.16c0,.29.13.56.33.75s.46.3.76.3l10.22-.21,10.22-.21.3.42.3.42h0l1.94,2.74,1.94,2.74,3.55,5,3.55,5h0l.48.68.48.68c.17.24.42.39.69.43s.55-.01.79-.18l2.64-1.87,2.64-1.87c.24-.17.39-.42.43-.69s-.01-.55-.18-.79l-.17-.25-.17-.25c-.17-.24-.23-.53-.18-.79s.19-.52.43-.69l1.71-1.21,1.71-1.21c.24-.17.39-.42.43-.69s-.01-.55-.18-.79Z"/>
  <path id="CK_Building_22" d="M390.26,282.55l-.58-18.65-.58-18.65c-.01-.45-.21-.86-.52-1.15s-.72-.46-1.18-.45l-9.63.3-9.63.3c-.45.01-.86.21-1.15.52s-.46.72-.45,1.18l.55,17.82.55,17.82c.01.45.21.86.52,1.15s.72.46,1.18.45h0c.45-.01.87.16,1.18.45s.5.69.52,1.15l.12,3.77.12,3.77c.01.45.21.86.52,1.15s.72.46,1.18.45l7.49-.23,7.49-.23c.45-.01.86-.21,1.15-.52s.46-.72.45-1.18l-.14-4.6-.14-4.6.49-.02.49-.02Z"/>
  <path id="CK_Building_23" d="M276.04,204.29l-4.12-8.59-4.12-8.59c-.09-.19-.1-.39-.03-.57s.2-.34.38-.43l1.49-.71,1.49-.71c.19-.09.32-.25.38-.43s.06-.39-.03-.57l-11.09-23.1-11.09-23.1c-.09-.19-.25-.32-.43-.38s-.39-.06-.57.03l-12.17,5.84-12.17,5.84c-.19.09-.39.1-.57.03s-.34-.2-.43-.38h0c-.09-.19-.25-.32-.43-.38s-.39-.06-.57.03l-12.96,6.22-12.96,6.22c-.19.09-.32.25-.38.43s-.06.39.03.57l5.51,11.48,5.51,11.48c.09.19.25.32.43.38s.39.06.57-.03l.96-.46.96-.46c.19-.09.39-.1.57-.03s.34.2.43.38l2.79,5.81,2.79,5.81c.09.19.25.32.43.38s.39.06.57-.03l6.01-2.89,6.01-2.89c.19-.09.39-.1.57-.03s.34.2.43.38l4.73,9.86,4.73,9.86c.09.19.25.32.43.38s.39.06.57-.03l2.73-1.31,2.73-1.31c.19-.09.39-.1.57-.03s.34.2.43.38l.29.6.29.6c.09.19.25.32.43.38s.39.06.57-.03l.78-.37.78-.37c.19-.09.39-.1.57-.03s.34.2.43.38l1.24,2.59,1.24,2.59c.09.19.25.32.43.38s.39.06.57-.03l10.47-5.02,10.47-5.02c.19-.09.32-.25.38-.43s.06-.39-.03-.57Z"/>
  <path id="CK_Building_24" d="M280.7,157.19l-4.86,1.33-4.86,1.33c-.77.21-1.56.09-2.2-.28s-1.15-.98-1.36-1.76l-2.19-8.01-2.19-8.01c-.21-.77-.09-1.56.28-2.2s.98-1.15,1.76-1.36l4.86-1.33,4.86-1.33c.77-.21,1.56-.09,2.2.28s1.15.98,1.36,1.76l2.19,8.01,2.19,8.01c.21.77.09,1.56-.28,2.2s-.98,1.15-1.76,1.36Z"/>
  <path id="CK_Building_25" d="M325.91,111.33l-5.01-20.4-5.01-20.4c-.08-.32-.28-.58-.54-.74s-.58-.22-.9-.14l-13.55,3.33-13.55,3.33c-.32.08-.58.28-.74.54s-.22.58-.14.9l5.01,20.4,5.01,20.4c.08.32.28.58.54.74s.58.22.9.14h0c.32-.08.64-.02.9.14s.46.42.54.74l1.1,4.49,1.1,4.49c.08.32.28.58.54.74s.58.22.9.14l10.58-2.6,10.58-2.6c.32-.08.58-.28.74-.54s.22-.58.14-.9l-1.1-4.49-1.1-4.49c-.08-.32-.02-.64.14-.9s.42-.46.74-.54l.65-.16.65-.16c.32-.08.58-.28.74-.54s.22-.58.14-.9Z"/>
</svg>