<?xml version="1.0" encoding="UTF-8"?>
<svg id="Layer_1" xmlns="http://www.w3.org/2000/svg" viewBox="0 0 512 512">
  <path id="Crossroads" d="M313.92,454.24l192.77-29.39c3.42-.52,5.76-3.71,5.24-7.13l-57.26-375.52c-.52-3.42-3.71-5.76-7.13-5.24l-198.95,30.34h0l-47.83,7.29h0s-19.67,3-19.67,3c-3.42.52-6.61-1.83-7.13-5.24l-.64-4.22c-.52-3.42-3.71-5.76-7.13-5.24l-79.18,12.07c-3.42.52-5.76,3.71-5.24,7.13l1.59,10.4h0l.67,4.37c.52,3.42-1.83,6.61-5.24,7.13l-38.78,5.91c-3.42.52-5.76,3.71-5.24,7.13l15.43,101.2c.52,3.42-1.83,6.61-5.24,7.13l-39.63,6.04c-3.42.52-5.76,3.71-5.24,7.13l11.84,77.67c.52,3.42,3.71,5.76,7.13,5.24h0c3.42-.52,6.61,1.83,7.13,5.24l21.82,143.11c.52,3.42,3.71,5.76,7.13,5.24l140.38-21.41c3.42-.52,5.76-3.71,5.24-7.13l-7.13-46.74c-.52-3.42,1.83-6.61,5.24-7.13l90.89-13.86c3.42-.52,6.61,1.83,7.13,5.24l9.91,64.97c.52,3.42,3.71,5.76,7.13,5.24ZM176.47,287.29l-9.06-59.38c-.52-3.42,1.83-6.61,5.24-7.13l43.06-6.57c3.42-.52,6.61,1.83,7.13,5.24l9.06,59.38c.52,3.42-1.83,6.61-5.24,7.13l-43.06,6.57c-3.42.52-6.61-1.83-7.13-5.24Z"/>
</svg>