<?xml version="1.0" encoding="UTF-8"?>
<svg id="Layer_1" xmlns="http://www.w3.org/2000/svg" viewBox="0 0 512 512">
  <path id="FH_x21_" d="M114.5,179.62l7.03-1.22c.76-.13,1.27-.86,1.14-1.62l-3.76-21.65c-.13-.76-.86-1.27-1.62-1.14l-.1.02c-.76.13-1.49-.38-1.62-1.14l-7.61-43.89c-.13-.76-.86-1.27-1.62-1.14l-12.87,2.23c-.76.13-1.27.86-1.14,1.62l2.89,16.64c.13.76-.38,1.49-1.14,1.62l-.37.06c-.76.13-1.27.86-1.14,1.62l4,23.06c.13.76-.38,1.49-1.14,1.62l-6.74,1.17c-.76.13-1.49-.38-1.62-1.14l-.3-1.73c-.13-.76-.86-1.27-1.62-1.14l-28.69,4.98c-.76.13-1.27.86-1.14,1.62l.74,4.26c.13.76-.38,1.49-1.14,1.62l-10.12,1.76c-.34.06-.69,0-.98-.19l-2.05-1.27c-.35-.22-.59-.57-.65-.98l-7.6-49.72c-.12-.76.41-1.48,1.17-1.6l1.01-.15c.76-.12,1.29-.83,1.17-1.6l-.4-2.61c-.12-.77.42-1.49,1.19-1.6l41.08-5.65c.77-.11,1.3-.81,1.2-1.58l-3.25-23.65c-.11-.77-.81-1.3-1.58-1.2l-53.27,7.32c-.77.11-1.3.81-1.2,1.58l.69,5c.1.76-.42,1.46-1.18,1.58l-4.54.69c-.76.12-1.29.83-1.17,1.6l1.35,8.86c.12.76-.41,1.48-1.17,1.6l-.76.12c-.76.12-1.29.83-1.17,1.6l10.61,69.43h.04s-.13.15-.13.15l17.07,11.69c.3.21.67.29,1.03.22l18.18-3.15h0s21.33-3.7,21.33-3.7c.76-.13,1.49.38,1.62,1.14h0c.13.76.86,1.27,1.62,1.14l5.54-.96c.76-.13,1.27-.86,1.14-1.62l-.24-1.38.44-.08-1.19-6.83c-.13-.76.38-1.49,1.14-1.62l18.56-3.22c.76-.13,1.49.38,1.62,1.14l1.78,10.29c.13.76.86,1.27,1.62,1.14Z"/>
  <path id="FH2" d="M115.96,35.77l-9.63-22.85c-.16-.38-.59-.55-.97-.39l-19.12,8.06c-.49.21-1.03-.15-1.03-.68v-1.12c0-.41-.33-.74-.74-.74h-29.75c-.41,0-.74.33-.74.74h0c0,.41-.33.74-.74.74h-27.36c-.41,0-.74.33-.74.74v2.55c0,.41-.33.74-.74.74H3.45c-.41,0-.74.33-.74.74v22.76c0,.41.33.74.74.74h66.64c.41,0,.74.33.74.74v.74c0,.41.33.74.74.74h6.82c.41,0,.74-.33.74-.74v-12.08c0-.41.33-.74.74-.74h10.85c.3,0,.57.18.68.45l3.3,7.82c.16.38.59.55.97.39l19.89-8.38c.38-.16.55-.59.39-.97Z"/>
  <path id="FH3" d="M167.15,61.12l-3,.42c-1.08.15-2.08-.6-2.23-1.68l-5.6-40.23c-.15-1.1.63-2.1,1.73-2.23l1.49-.17c1.08-.13,1.86-1.11,1.73-2.19l-1.53-13.07c-.13-1.08-1.11-1.86-2.19-1.73l-34.84,4.09c-1.08.13-1.86,1.11-1.73,2.19h0c.13,1.08-.65,2.06-1.73,2.19l-2.56.3c-1.08.13-1.86,1.11-1.73,2.19l1.07,9.14c.13,1.08,1.11,1.86,2.19,1.73l16.55-1.94c1.07-.13,2.04.63,2.19,1.69l5.67,40.73c.15,1.08-.6,2.08-1.68,2.23l-15,2.09c-1.08.15-1.83,1.15-1.68,2.23l1.61,11.54c.15,1.08,1.15,1.83,2.23,1.68l41.21-5.73c1.08-.15,1.83-1.15,1.68-2.23l-1.61-11.54c-.15-1.08-1.15-1.83-2.23-1.68Z"/>
  <path id="FH4" d="M142.92,267.79l9.87-1.64c.22-.04.42-.14.58-.29l5.05-4.76c.16-.15.36-.25.58-.29l8.93-1.48c.61-.1,1.02-.67.92-1.28l-.4-2.41c-.1-.61.31-1.18.92-1.28l45.76-7.58c.61-.1,1.02-.67.92-1.28l-4.81-29.02c-.1-.61-.67-1.02-1.28-.92l-41.17,6.82c-.61.1-1.18-.31-1.28-.92h0c-.1-.61-.67-1.02-1.28-.92l-10.72,1.78c-.61.1-1.02.67-.92,1.28l.45,2.72c.1.61-.31,1.18-.92,1.28l-17.67,2.93c-.23.04-.47,0-.68-.1l-7.25-3.65c-.21-.11-.45-.14-.68-.1l-34.52,5.72c-.31.05-.58.23-.75.49l-3.7,5.72c-.16.24-.21.53-.16.81l1.28,6.71c.06.3.23.56.49.73l4.9,3.16c.26.17.44.44.49.75l1.26,7.58h0l5.53,33.35c.05.28.2.53.42.7l7.5,5.7c.23.17.38.42.42.7l3.55,21.4c.04.26.18.5.38.67l11.56,9.8c.25.21.58.3.9.25l24.7-4.09c.61-.1,1.02-.67.92-1.28l-1.76-10.6c-.1-.61-.67-1.02-1.28-.92l-4.44.74c-.42.07-.84-.1-1.09-.45l-12.07-16.79c-.1-.14-.17-.3-.19-.47l-1.58-9.55h.02s-1.7-10.28-1.7-10.28c-.1-.61.31-1.18.92-1.28l4.71-.78c.22-.04.42-.14.58-.29l7.23-6.82c.16-.15.36-.25.58-.29Z"/>
  <rect id="FH5" x="273.33" y="281.29" width="40.41" height="24.99" rx="3.83" ry="3.83" transform="translate(49.08 -41.95) rotate(8.92)"/>
  <path id="FH6" d="M363.9,256.53l-4.85-2.19c-.5-.23-1.09,0-1.32.5h0c-.23.5-.82.73-1.32.5l-11.22-5.07c-.5-.23-.73-.82-.5-1.32l.31-.69c.23-.5,0-1.09-.5-1.32l-6.32-2.86c-.5-.23-1.09,0-1.32.5l-.31.69c-.23.5-.82.73-1.32.5l-26.94-12.18c-.5-.23-.73-.82-.5-1.32l.31-.69c.23-.5,0-1.09-.5-1.32l-43.67-19.74c-.5-.23-1.09,0-1.32.5l-.31.69c-.23.5-.82.73-1.32.5l-19.79-8.94c-.5-.23-1.09,0-1.32.5l-10.06,22.25c-.23.5,0,1.09.5,1.32l115.42,52.18c.5.23,1.09,0,1.32-.5l1.92-4.25c.23-.5.82-.73,1.32-.5l4.65,2.1c.5.23,1.09,0,1.32-.5l8.13-17.99c.23-.5,0-1.09-.5-1.32Z"/>
  <path id="FH7" d="M460.15,349.93h0c.5-.49.51-1.29.02-1.79l-26.69-27.26c-.49-.5-1.29-.51-1.79-.02l-1.25,1.22c-.5.49-1.3.48-1.79-.02l-15.95-16.29c-.49-.5-.48-1.3.02-1.79l.27-.27c.5-.49.51-1.29.02-1.79l-9.12-9.31c-.49-.5-.48-1.3.02-1.79l.08-.08c.5-.49.51-1.29.02-1.79l-14.36-14.66c-.49-.5-1.29-.51-1.79-.02l-.08.08c-.5.49-1.3.48-1.79-.02l-8.84-9.02c-.49-.5-1.29-.51-1.79-.02l-18.41,18.03c-.5.49-.51,1.29-.02,1.79l6.16,6.29h0l47.5,48.51c.49.5,1.29.51,1.79.02l.78-.77c.5-.49,1.3-.48,1.79.02l26.07,26.62h0l9.5,9.7c.43.44,1.12.51,1.63.16l12.71-8.75c.48-.33.68-.95.46-1.5l-5.46-14.11c-.18-.47-.07-1.01.3-1.36Z"/>
  <path id="FH8" d="M509.06,487.24l-8.1-33.67c-.13-.53.2-1.06.72-1.18h0c.53-.13.85-.66.72-1.18l-1.35-5.61c-.13-.53-.66-.85-1.18-.72h0c-.53.13-1.06-.2-1.18-.72l-4.96-20.63c-.13-.53-.66-.85-1.18-.72l-9.08,2.18c-.53.13-1.06-.2-1.18-.72l-2.36-9.81c-.11-.46.12-.93.55-1.12l3.74-1.7c.49-.22.71-.8.49-1.29l-13.79-31.11c-.18-.41-.63-.65-1.07-.57l-13.21,2.45c-.55.1-.91.65-.77,1.19l2.79,11.61c.13.53-.2,1.06-.72,1.18l-.98.24c-.53.13-.85.66-.72,1.18l16.74,69.59c.13.53.66.85,1.18.72l1.94-.47c.53-.13,1.06.2,1.18.72l6.33,26.29c.13.53.66.85,1.18.72l23.56-5.67c.53-.13.85-.66.72-1.18Z"/>
  <path id="FH9" d="M475.67,498.76c.81-.78.83-2.06.05-2.87l-1.41-1.46h0l-32.92-34.14h0l-1.58-1.63c-.78-.81-2.06-.83-2.87-.05l-8.87,8.55c-.81.78-.83,2.06-.05,2.87l.17.17c.78.81.76,2.09-.05,2.87l-3.5,3.38c-.81.78-.83,2.06-.05,2.87l30.1,31.22c.78.81,2.06.83,2.87.05l3.5-3.38c.81-.78,2.09-.76,2.87.05h0c.78.81,2.06.83,2.87.05l8.87-8.55Z"/>
  <path id="Stern" d="M400.68,363.66l-2.66,13.08c-.14.71-.84,1.17-1.54,1.02l-5.41-1.1c-.71-.14-1.17-.84-1.02-1.54l.59-2.9c.14-.71-.31-1.4-1.02-1.54l-41.96-8.53c-.71-.14-1.4.31-1.54,1.02l-.44,2.17c-.14.71-.84,1.17-1.54,1.02l-12.66-2.57c-.05-.01-.11-.03-.16-.04l-17.08-5.81c-.67-.23-1.4.12-1.65.78l-.4,1.06c-.26.68-1.02,1.02-1.69.76l-53.77-20.61c-.12-.05-.24-.11-.34-.2l-9.14-7.22c-.58-.46-.67-1.3-.2-1.86l8.34-10.03c.46-.56.39-1.38-.17-1.84l-15.71-13.06c-.56-.46-.63-1.29-.17-1.84l3.72-4.48c.46-.56.39-1.38-.17-1.84l-3.94-3.27c-.56-.46-1.38-.39-1.84.17l-4.56,5.49-1.11,1.34-2.76,3.32c-.46.56-1.29.63-1.84.17l-31.71-26.35c-.29-.24-.7-.25-1.01-.03h0c-.35.25-.82.19-1.1-.13l-13.76-15.77c-.48-.54-1.3-.6-1.85-.13l-11.85,10.34c-.54.48-.6,1.3-.13,1.85l.77.88c.43.5.43,1.24,0,1.73l-11.67,13.08c-.48.54-.43,1.37.11,1.85l16.36,14.59c.54.48,1.37.43,1.85-.11l3.14-3.52c.47-.53,1.27-.59,1.81-.14l53.59,44.54c.56.46,1.38.39,1.84-.17l4.28-5.16c.45-.55,1.26-.63,1.82-.19l6.2,4.89c.45.36.62.96.41,1.5l-.9,2.36c-.03.08-.07.16-.12.23l-23.51,36.99c-.39.61-.21,1.42.4,1.81l20.02,12.72c.61.39,1.42.21,1.81-.4l24.87-39.12c.33-.53.99-.74,1.57-.52l29.01,11.12c.6.23.94.86.81,1.48l-9.16,45.05c-.14.71.31,1.4,1.02,1.54l22.89,4.65c.71.14,1.4-.31,1.54-1.02l10.78-53.04c.17-.85,1.1-1.3,1.88-.91l.03.02c.52.27.81.85.69,1.43l-1.16,5.71c-.14.71.31,1.4,1.02,1.54l43.24,8.79,12.74,2.59c.71.14,1.4-.31,1.54-1.02l1.31-6.44c.14-.71.84-1.17,1.54-1.02l5.41,1.1c.71.14,1.17.84,1.02,1.54l-14.89,73.26c-.14.71-.84,1.17-1.54,1.02h0c-.71-.14-1.4.31-1.54,1.02l-2.96,14.57c-.14.71.31,1.4,1.02,1.54l1.28.26,10.28,2.09,10.4,2.11,1.2.24,23.07-113.53c.14-.71-.31-1.4-1.02-1.54l-19.31-3.92c-.71-.14-1.4.31-1.54,1.02Z"/>
</svg>