<?xml version="1.0" encoding="UTF-8"?>
<svg id="Layer_1" xmlns="http://www.w3.org/2000/svg" viewBox="0 0 512 512">
  <path id="FH_Building_1" d="M114.5,179.62l3.52-.61,3.52-.61c.38-.07.7-.28.91-.57s.3-.67.24-1.05l-1.88-10.83-1.88-10.83c-.07-.38-.28-.7-.57-.91s-.67-.3-1.05-.24h-.05s-.05.02-.05.02c-.38.07-.75-.03-1.05-.24s-.51-.52-.57-.91l-3.81-21.94-3.81-21.94c-.07-.38-.28-.7-.57-.91s-.67-.3-1.05-.24l-6.43,1.12-6.43,1.12c-.38.07-.7.28-.91.57s-.3.67-.24,1.05l1.44,8.32,1.44,8.32c.07.38-.03.75-.24,1.05s-.52.51-.91.57l-.18.03-.18.03c-.38.07-.7.28-.91.57s-.3.67-.24,1.05l2,11.53,2,11.53c.07.38-.03.75-.24,1.05s-.52.51-.91.57l-3.37.58-3.37.58c-.38.07-.75-.03-1.05-.24s-.51-.52-.57-.91l-.15-.87-.15-.87c-.07-.38-.28-.7-.57-.91s-.67-.3-1.05-.24l-14.35,2.49-14.35,2.49c-.38.07-.7.28-.91.57s-.3.67-.24,1.05l.37,2.13.37,2.13c.07.38-.03.75-.24,1.05s-.52.51-.91.57l-5.06.88-5.06.88c-.17.03-.34.03-.51,0s-.33-.09-.47-.18l-1.03-.64-1.03-.64c-.17-.11-.32-.25-.43-.42s-.19-.36-.22-.56l-3.8-24.86-3.8-24.86c-.06-.38.04-.75.26-1.04s.53-.5.92-.56l.5-.08.5-.08c.38-.06.71-.27.92-.56s.31-.66.26-1.04l-.2-1.31-.2-1.31c-.06-.39.05-.76.26-1.05s.54-.5.93-.55l20.54-2.82,20.54-2.82c.38-.05.71-.26.93-.54s.32-.65.27-1.04l-1.63-11.83-1.63-11.83c-.05-.38-.26-.71-.54-.93s-.65-.32-1.04-.27l-26.64,3.66-26.64,3.66c-.38.05-.71.26-.93.54s-.32.65-.27,1.04l.34,2.5.34,2.5c.05.38-.05.74-.27,1.03s-.53.49-.91.55l-2.27.35-2.27.35c-.38.06-.71.27-.92.56s-.31.66-.26,1.04l.68,4.43.68,4.43c.06.38-.04.75-.26,1.04s-.53.5-.92.56l-.38.06-.38.06c-.38.06-.71.27-.92.56s-.31.66-.26,1.04l5.31,34.72,5.31,34.72h.02s.02,0,.02,0l-.06.08-.06.08,8.54,5.84,8.54,5.84c.15.1.32.17.49.21s.36.04.54.01l9.09-1.58,9.09-1.58h0s0,0,0,0l10.66-1.85,10.66-1.85c.38-.07.75.03,1.05.24s.51.52.57.91h0c.07.38.28.7.57.91s.67.3,1.05.24l2.77-.48,2.77-.48c.38-.07.7-.28.91-.57s.3-.67.24-1.05l-.12-.69-.12-.69.22-.04.22-.04-.59-3.42-.59-3.42c-.07-.38.03-.75.24-1.05s.52-.51.91-.57l9.28-1.61,9.28-1.61c.38-.07.75.03,1.05.24s.51.52.57.91l.89,5.14.89,5.14c.07.38.28.7.57.91s.67.3,1.05.24Z"/>
  <path id="FH_Building_2" d="M115.96,35.77l-4.81-11.42-4.81-11.42c-.08-.19-.23-.33-.4-.4s-.38-.08-.57,0l-9.56,4.03-9.56,4.03c-.24.1-.5.06-.7-.07s-.33-.35-.33-.62v-1.12c0-.2-.08-.39-.22-.52s-.32-.22-.52-.22h-29.75c-.2,0-.39.08-.52.22s-.22.32-.22.52h0c0,.2-.08.39-.22.52s-.32.22-.52.22h-27.36c-.2,0-.39.08-.52.22s-.22.32-.22.52v2.55c0,.2-.08.39-.22.52s-.32.22-.52.22H3.45c-.2,0-.39.08-.52.22s-.22.32-.22.52v22.76c0,.2.08.39.22.52s.32.22.52.22h66.64c.2,0,.39.08.52.22s.22.32.22.52v.74c0,.2.08.39.22.52s.32.22.52.22h6.82c.2,0,.39-.08.52-.22s.22-.32.22-.52v-12.08c0-.2.08-.39.22-.52s.32-.22.52-.22h10.85c.15,0,.29.04.41.12s.21.19.27.33l1.65,3.91,1.65,3.91c.08.19.23.33.4.4s.38.08.57,0l9.95-4.19,9.95-4.19c.19-.08.33-.23.4-.4s.08-.38,0-.57Z"/>
  <path id="FH_Building_3" d="M167.15,61.12l-1.5.21-1.5.21c-.54.08-1.06-.08-1.46-.38s-.69-.76-.77-1.3l-2.8-20.12-2.8-20.12c-.08-.55.08-1.07.39-1.48s.78-.69,1.33-.75l.74-.09.74-.09c.54-.06,1.01-.34,1.32-.74s.48-.91.41-1.45l-.77-6.53-.77-6.53c-.06-.54-.34-1.01-.74-1.32s-.91-.48-1.45-.41l-17.42,2.04-17.42,2.04c-.54.06-1.01.34-1.32.74s-.48.91-.41,1.45h0c.06.54-.1,1.06-.41,1.45s-.78.67-1.32.74l-1.28.15-1.28.15c-.54.06-1.01.34-1.32.74s-.48.91-.41,1.45l.54,4.57.54,4.57c.06.54.34,1.01.74,1.32s.91.48,1.45.41l8.28-.97,8.28-.97c.53-.06,1.04.09,1.44.4s.67.76.75,1.29l2.83,20.37,2.83,20.37c.08.54-.08,1.06-.38,1.46s-.76.69-1.3.77l-7.5,1.04-7.5,1.04c-.54.08-1,.36-1.3.77s-.46.92-.38,1.46l.8,5.77.8,5.77c.08.54.36,1,.77,1.3s.92.46,1.46.38l20.61-2.87,20.61-2.87c.54-.08,1-.36,1.3-.77s.46-.92.38-1.46l-.8-5.77-.8-5.77c-.08-.54-.36-1-.77-1.3s-.92-.46-1.46-.38Z"/>
  <path id="FH_Building_4" d="M142.92,267.79l4.94-.82,4.94-.82c.11-.02.21-.05.31-.1s.19-.11.27-.19l2.52-2.38,2.52-2.38c.08-.08.17-.14.27-.19s.2-.08.31-.1l4.47-.74,4.47-.74c.3-.05.56-.22.72-.45s.24-.53.19-.83l-.2-1.21-.2-1.21c-.05-.3.03-.6.19-.83s.42-.4.72-.45l22.88-3.79,22.88-3.79c.3-.05.56-.22.72-.45s.24-.53.19-.83l-2.4-14.51-2.4-14.51c-.05-.3-.22-.56-.45-.72s-.53-.24-.83-.19l-20.59,3.41-20.59,3.41c-.3.05-.6-.03-.83-.19s-.4-.42-.45-.72h0c-.05-.3-.22-.56-.45-.72s-.53-.24-.83-.19l-5.36.89-5.36.89c-.3.05-.56.22-.72.45s-.24.53-.19.83l.23,1.36.23,1.36c.05.3-.03.6-.19.83s-.42.4-.72.45l-8.83,1.46-8.83,1.46c-.12.02-.23.02-.35,0s-.23-.05-.33-.11l-3.63-1.82-3.63-1.82c-.11-.05-.22-.09-.33-.11s-.23-.02-.35,0l-17.26,2.86-17.26,2.86c-.15.03-.3.08-.43.17s-.24.19-.32.33l-1.85,2.86-1.85,2.86c-.08.12-.13.25-.16.39s-.03.28,0,.42l.64,3.35.64,3.35c.03.15.09.29.17.41s.19.23.32.31l2.45,1.58,2.45,1.58c.13.09.24.2.33.32s.14.27.17.43l.63,3.79.63,3.79h0l2.76,16.68,2.76,16.68c.02.14.07.27.14.39s.17.23.28.31l3.75,2.85,3.75,2.85c.11.09.21.19.28.31s.12.25.14.39l1.77,10.7,1.77,10.7c.02.13.07.25.13.37s.15.21.25.3l5.78,4.9,5.78,4.9c.12.11.27.18.42.22s.32.05.48.03l12.35-2.05,12.35-2.05c.3-.05.56-.22.72-.45s.24-.53.19-.83l-.88-5.3-.88-5.3c-.05-.3-.22-.56-.45-.72s-.53-.24-.83-.19l-2.22.37-2.22.37c-.21.03-.42,0-.61-.07s-.36-.21-.48-.38l-6.03-8.39-6.03-8.39c-.05-.07-.09-.14-.12-.22s-.06-.16-.07-.25l-.79-4.78-.79-4.78h.01s.01,0,.01,0l-.85-5.14-.85-5.14c-.05-.3.03-.6.19-.83s.42-.4.72-.45l2.35-.39,2.35-.39c.11-.02.21-.05.31-.1s.19-.11.27-.19l3.61-3.41,3.61-3.41c.08-.08.17-.14.27-.19s.2-.08.31-.1Z"/>
  <path id="FH_Building_5" d="M307.77,308.66l-16.17-2.54-16.17-2.54c-1.05-.16-1.93-.74-2.5-1.53s-.85-1.81-.69-2.85l1.34-8.56,1.34-8.56c.16-1.05.74-1.93,1.53-2.5s1.81-.85,2.85-.69l16.17,2.54,16.17,2.54c1.05.16,1.93.74,2.5,1.53s.85,1.81.69,2.85l-1.34,8.56-1.34,8.56c-.16,1.05-.74,1.93-1.53,2.5s-1.81.85-2.85.69Z"/>
  <path id="FH_Building_6" d="M363.9,256.53l-2.42-1.1-2.42-1.1c-.25-.11-.52-.11-.76-.02s-.44.27-.56.52h0c-.11.25-.32.43-.56.52s-.51.09-.76-.02l-5.61-2.54-5.61-2.54c-.25-.11-.43-.32-.52-.56s-.09-.51.02-.76l.16-.35.16-.35c.11-.25.11-.52.02-.76s-.27-.44-.52-.56l-3.16-1.43-3.16-1.43c-.25-.11-.52-.11-.76-.02s-.44.27-.56.52l-.16.35-.16.35c-.11.25-.32.43-.56.52s-.51.09-.76-.02l-13.47-6.09-13.47-6.09c-.25-.11-.43-.32-.52-.56s-.09-.51.02-.76l.16-.35.16-.35c.11-.25.11-.52.02-.76s-.27-.44-.52-.56l-21.83-9.87-21.83-9.87c-.25-.11-.52-.11-.76-.02s-.44.27-.56.52l-.16.35-.16.35c-.11.25-.32.43-.56.52s-.51.09-.76-.02l-9.89-4.47-9.89-4.47c-.25-.11-.52-.11-.76-.02s-.44.27-.56.52l-5.03,11.12-5.03,11.12c-.11.25-.11.52-.02.76s.27.44.52.56l57.71,26.09,57.71,26.09c.25.11.52.11.76.02s.44-.27.56-.52l.96-2.13.96-2.13c.11-.25.32-.43.56-.52s.51-.09.76.02l2.33,1.05,2.33,1.05c.25.11.52.11.76.02s.44-.27.56-.52l4.07-9,4.07-9c.11-.25.11-.52.02-.76s-.27-.44-.52-.56Z"/>
  <path id="FH_Building_7" d="M460.15,349.93h0c.25-.25.38-.57.38-.89s-.12-.65-.36-.9l-13.34-13.63-13.34-13.63c-.25-.25-.57-.38-.89-.38s-.65.12-.9.36l-.63.61-.63.61c-.25.25-.58.37-.9.36s-.65-.13-.89-.38l-7.97-8.14-7.97-8.14c-.25-.25-.37-.58-.36-.9s.13-.65.38-.89l.14-.13.14-.13c.25-.25.38-.57.38-.89s-.12-.65-.36-.9l-4.56-4.66-4.56-4.66c-.25-.25-.37-.58-.36-.9s.13-.65.38-.89l.04-.04.04-.04c.25-.25.38-.57.38-.89s-.12-.65-.36-.9l-7.18-7.33-7.18-7.33c-.25-.25-.57-.38-.89-.38s-.65.12-.9.36l-.04.04-.04.04c-.25.25-.58.37-.9.36s-.65-.13-.89-.38l-4.42-4.51-4.42-4.51c-.25-.25-.57-.38-.89-.38s-.65.12-.9.36l-9.21,9.01-9.21,9.01c-.25.25-.38.57-.38.89s.12.65.36.9l3.08,3.15,3.08,3.15h0l23.75,24.26,23.75,24.26c.25.25.57.38.89.38s.65-.12.9-.36l.39-.38.39-.38c.25-.25.58-.37.9-.36s.65.13.89.38l13.03,13.31,13.03,13.31h0l4.75,4.85,4.75,4.85c.22.22.5.35.78.38s.59-.04.84-.22l6.36-4.38,6.36-4.38c.24-.17.41-.41.49-.67s.08-.56-.03-.83l-2.73-7.05-2.73-7.05c-.09-.24-.11-.49-.06-.73s.17-.46.35-.64Z"/>
  <path id="FH_Building_8" d="M509.06,487.24l-4.05-16.84-4.05-16.84c-.06-.26-.01-.53.12-.74s.34-.38.61-.44h0c.26-.06.48-.23.61-.44s.18-.48.12-.74l-.68-2.81-.68-2.81c-.06-.26-.23-.48-.44-.61s-.48-.18-.74-.12h0s0,0,0,0c-.26.06-.53.01-.74-.12s-.38-.34-.44-.61l-2.48-10.31-2.48-10.31c-.06-.26-.23-.48-.44-.61s-.48-.18-.74-.12l-4.54,1.09-4.54,1.09c-.26.06-.53.01-.74-.12s-.38-.34-.44-.61l-1.18-4.9-1.18-4.9c-.05-.23-.03-.46.07-.66s.26-.37.47-.46l1.87-.85,1.87-.85c.24-.11.42-.31.51-.54s.09-.5-.02-.75l-6.9-15.56-6.9-15.56c-.09-.21-.25-.37-.44-.47s-.41-.14-.64-.1l-6.6,1.22-6.6,1.22c-.28.05-.5.21-.64.43s-.2.49-.13.76l1.4,5.8,1.4,5.8c.06.26.01.53-.12.74s-.34.38-.61.44l-.49.12-.49.12c-.26.06-.48.23-.61.44s-.18.48-.12.74l8.37,34.79,8.37,34.79c.06.26.23.48.44.61s.48.18.74.12l.97-.23.97-.23c.26-.06.53-.01.74.12s.38.34.44.61l3.16,13.15,3.16,13.15c.06.26.23.48.44.61s.48.18.74.12l11.78-2.83,11.78-2.83c.26-.06.48-.23.61-.44s.18-.48.12-.74Z"/>
  <path id="FH_Building_9" d="M475.67,498.76c.4-.39.61-.91.62-1.42s-.18-1.04-.57-1.45l-.7-.73-.7-.73h0l-16.46-17.07-16.46-17.07h0l-.79-.82-.79-.82c-.39-.4-.91-.61-1.42-.62s-1.04.18-1.45.57l-4.44,4.28-4.44,4.28c-.4.39-.61.91-.62,1.42s.18,1.04.57,1.45l.08.09.08.09c.39.4.58.93.57,1.45s-.22,1.04-.62,1.42l-1.75,1.69-1.75,1.69c-.4.39-.61.91-.62,1.42s.18,1.04.57,1.45l15.05,15.61,15.05,15.61c.39.4.91.61,1.42.62s1.04-.18,1.45-.57l1.75-1.69,1.75-1.69c.4-.39.93-.58,1.45-.57s1.04.22,1.42.62h0c.39.4.91.61,1.42.62s1.04-.18,1.45-.57l4.44-4.28,4.44-4.28Z"/>
  <path id="Stern_Hall" d="M400.68,363.66l-1.33,6.54-1.33,6.54c-.07.35-.28.65-.56.83s-.63.26-.98.19l-2.71-.55-2.71-.55c-.35-.07-.65-.28-.83-.56s-.26-.63-.19-.98l.29-1.45.29-1.45c.07-.35,0-.7-.19-.98s-.48-.49-.83-.56l-20.98-4.26-20.98-4.26c-.35-.07-.7,0-.98.19s-.49.48-.56.83l-.22,1.08-.22,1.08c-.07.35-.28.65-.56.83s-.63.26-.98.19l-6.33-1.29-6.33-1.29s-.05-.01-.08-.02-.05-.02-.08-.02l-8.54-2.91-8.54-2.91c-.33-.11-.68-.08-.98.06s-.54.39-.67.72l-.2.53-.2.53c-.13.34-.38.6-.69.73s-.67.16-1.01.03l-26.88-10.31-26.88-10.31c-.06-.02-.12-.05-.18-.08s-.11-.07-.16-.11l-4.57-3.61-4.57-3.61c-.29-.23-.46-.55-.49-.89s.06-.69.3-.97l4.17-5.01,4.17-5.01c.23-.28.33-.62.3-.96s-.19-.66-.47-.89l-7.86-6.53-7.86-6.53c-.28-.23-.44-.55-.47-.89s.07-.68.3-.96l1.86-2.24,1.86-2.24c.23-.28.33-.62.3-.96s-.19-.66-.47-.89l-1.97-1.64-1.97-1.64c-.28-.23-.62-.33-.96-.3s-.66.19-.89.47l-2.28,2.74-2.28,2.74-.55.67-.55.67-1.38,1.66-1.38,1.66c-.23.28-.55.44-.89.47s-.68-.07-.96-.3l-15.85-13.18-15.85-13.18c-.14-.12-.32-.18-.5-.19s-.36.05-.51.15h0c-.17.12-.38.17-.58.15s-.39-.12-.53-.28l-6.88-7.88-6.88-7.88c-.24-.27-.56-.42-.9-.45s-.68.08-.95.32l-5.92,5.17-5.92,5.17c-.27.24-.42.56-.45.9s.08.68.32.95l.38.44.38.44c.22.25.32.56.32.87s-.11.62-.33.86l-5.84,6.54-5.84,6.54c-.24.27-.35.61-.33.95s.17.66.44.9l8.18,7.3,8.18,7.3c.27.24.61.35.95.33s.66-.17.9-.44l1.57-1.76,1.57-1.76c.23-.26.55-.41.88-.43s.66.07.93.3l26.79,22.27,26.79,22.27c.28.23.62.33.96.3s.66-.19.89-.47l2.14-2.58,2.14-2.58c.23-.27.54-.43.87-.47s.67.05.95.27l3.1,2.45,3.1,2.45c.22.18.38.42.45.68s.06.55-.04.82l-.45,1.18-.45,1.18s-.03.08-.05.12-.04.08-.06.11l-11.76,18.49-11.76,18.49c-.19.31-.25.66-.17.99s.27.63.58.82l10.01,6.36,10.01,6.36c.31.19.66.25.99.17s.63-.27.82-.58l12.43-19.56,12.43-19.56c.17-.26.42-.45.69-.54s.59-.09.88.02l14.51,5.56,14.51,5.56c.3.11.53.33.68.59s.2.58.14.89l-4.58,22.53-4.58,22.53c-.07.35,0,.7.19.98s.48.49.83.56l11.45,2.33,11.45,2.33c.35.07.7,0,.98-.19s.49-.48.56-.83l5.39-26.52,5.39-26.52c.09-.42.36-.75.71-.92s.78-.18,1.16.01h.02s.02.02.02.02c.26.13.46.35.59.6s.16.54.1.83l-.58,2.86-.58,2.86c-.07.35,0,.7.19.98s.48.49.83.56l21.62,4.39,21.62,4.39,6.37,1.29,6.37,1.29c.35.07.7,0,.98-.19s.49-.48.56-.83l.65-3.22.65-3.22c.07-.35.28-.65.56-.83s.63-.26.98-.19l2.71.55,2.71.55c.35.07.65.28.83.56s.26.63.19.98l-7.44,36.63-7.44,36.63c-.07.35-.28.65-.56.83s-.63.26-.98.19h0c-.35-.07-.7,0-.98.19s-.49.48-.56.83l-1.48,7.29-1.48,7.29c-.07.35,0,.7.19.98s.48.49.83.56l.64.13.64.13,5.14,1.04,5.14,1.04,5.2,1.06,5.2,1.06.6.12.6.12,11.54-56.76,11.54-56.76c.07-.35,0-.7-.19-.98s-.48-.49-.83-.56l-9.66-1.96-9.66-1.96c-.35-.07-.7,0-.98.19s-.49.48-.56.83Z"/>
</svg>