<?xml version="1.0" encoding="UTF-8"?>
<svg id="Layer_1" xmlns="http://www.w3.org/2000/svg" viewBox="0 0 512 512">
  <path id="Martinez_Commons" d="M407.71,188.65l16.02-2.56c3.24-.52,5.45-3.56,4.93-6.81l-19.81-124.18h0l-3.85-24.13-4.14-25.97c-.52-3.24-3.56-5.45-6.81-4.93l-42.16,6.73c-3.24.52-5.45,3.56-4.93,6.81h0c.52,3.24-1.69,6.29-4.93,6.81l-200.86,32.04h0s-.44.07-.44.07h0s-52.46,8.37-52.46,8.37c-3.24.52-5.45,3.56-4.93,6.81l70.08,439.28c.52,3.24,3.56,5.45,6.81,4.93l30.18-4.81h0l93.32-14.89c3.24-.52,5.45-3.56,4.93-6.81l-.39-2.41c-.52-3.24,1.69-6.29,4.93-6.81l16.05-2.56c3.24-.52,5.45-3.56,4.93-6.81l-2.13-13.36c-.52-3.24-3.56-5.45-6.81-4.93l-51.47,8.21-41.49,6.62c-3.24.52-6.29-1.69-6.81-4.93l-12.67-79.38c-.52-3.24,1.69-6.29,4.93-6.81l99.13-15.82h0l14.05-2.24c3.24-.52,5.45-3.56,4.93-6.81l-21.48-134.62c-.52-3.24,1.69-6.29,4.93-6.81l108.39-17.29h0ZM155.59,107.95l106.97-17.07c3.24-.52,5.45-3.56,4.93-6.81l-.06-.39c-.52-3.24,1.69-6.29,4.93-6.81l76.71-12.24c3.24-.52,6.29,1.69,6.81,4.93l6.14,38.46c.52,3.24-1.69,6.29-4.93,6.81l-111.84,17.84c-3.24.52-5.45,3.56-4.93,6.81l3.09,19.38c.26,1.65-.18,3.34-1.23,4.65l-7.51,9.39c-1.16,1.46-1.58,3.37-1.12,5.18l24.71,97.18c.11.44.17.89.18,1.35l.41,20.47c.06,2.97-2.08,5.52-5.01,5.99l-65.47,10.44c-3.24.52-6.29-1.69-6.81-4.93l-30.92-193.83c-.52-3.24,1.69-6.29,4.93-6.81Z"/>
</svg>