<?xml version="1.0" encoding="UTF-8"?>
<svg id="Layer_1" xmlns="http://www.w3.org/2000/svg" viewBox="0 0 512 512">
  <path id="Cunningham_Hall" d="M7.04,181.94l-3.01-19.09-3.01-19.09c-.28-1.79.19-3.52,1.18-4.88s2.49-2.34,4.28-2.62l76.14-11.99,76.14-11.99c1.79-.28,3.52.19,4.88,1.18s2.34,2.49,2.62,4.28l3.01,19.09,3.01,19.09c.28,1.79-.19,3.52-1.18,4.88s-2.49,2.34-4.28,2.62l-76.14,11.99-76.14,11.99c-1.79.28-3.52-.19-4.88-1.18s-2.34-2.49-2.62-4.28Z"/>
  <path id="Towle_Hall" d="M407.96,153.74l-10.45-66.35c-.14-.87-.95-1.46-1.82-1.32l-16.75,2.64h0l-14.57,2.3c-.87.14-1.46.95-1.32,1.82l.56,3.55c.14.87-.46,1.68-1.32,1.82l-7.41,1.17c-.87.14-1.68-.46-1.82-1.32l-.85-5.42c-.14-.87-.95-1.46-1.82-1.32l-18.79,2.96c-.87.14-1.46.95-1.32,1.82l.85,5.42c.14.87-.46,1.68-1.32,1.82l-7.99,1.26c-.87.14-1.68-.46-1.82-1.32l-2.44-15.48c-.14-.87-.95-1.46-1.82-1.32l-19.43,3.06c-.87.14-1.46.95-1.32,1.82l.63,3.99c.14.87-.46,1.68-1.32,1.82l-10.93,1.72c-.87.14-1.46.95-1.32,1.82l1.32,8.36c.14.87-.46,1.68-1.32,1.82l-9.71,1.53c-.87.14-1.68-.46-1.82-1.32l-2.64-16.77c-.14-.87-.95-1.46-1.82-1.32l-19.43,3.06c-.87.14-1.46.95-1.32,1.82l.63,3.99c.14.87-.46,1.68-1.32,1.82l-15.87,2.5c-.87.14-1.46.95-1.32,1.82l.35,2.21c.14.87-.46,1.68-1.32,1.82l-4.21.66c-.87.14-1.46.95-1.32,1.82l.68,4.3c.14.87-.46,1.68-1.32,1.82h0c-.87.14-1.68-.46-1.82-1.32l-1.75-11.14c-.14-.87-.95-1.46-1.82-1.32l-11.58,1.82c-.87.14-1.46.95-1.32,1.82l4.25,26.96c.14.87-.46,1.68-1.32,1.82l-13.11,2.07c-.87.14-1.46.95-1.32,1.82l.51,3.24c.14.87-.46,1.68-1.32,1.82l-.4.06c-.87.14-1.46.95-1.32,1.82l5.56,35.3c.14.87.95,1.46,1.82,1.32l30.06-4.73c.87-.14,1.46-.95,1.32-1.82l-1.21-7.68c-.14-.87.46-1.68,1.32-1.82l8.67-1.37c.87-.14,1.68.46,1.82,1.32l1.15,7.32c.14.87.95,1.46,1.82,1.32l19.41-3.06c.87-.14,1.46-.95,1.32-1.82l-.23-1.48c-.14-.87.46-1.68,1.32-1.82l18.86-2.97c.87-.14,1.46-.95,1.32-1.82l-.43-2.7c-.14-.87.46-1.68,1.32-1.82l5.53-.87c.87-.14,1.68.46,1.82,1.32l1.15,7.32c.14.87.95,1.46,1.82,1.32l19.41-3.06c.87-.14,1.46-.95,1.32-1.82l-1.15-7.32c-.14-.87.46-1.68,1.32-1.82l22.61-3.56c.87-.14,1.68.46,1.82,1.32l.43,2.7c.14.87.95,1.46,1.82,1.32l17.08-2.69c.87-.14,1.46-.95,1.32-1.82l-.43-2.7c-.14-.87.46-1.68,1.32-1.82l9.79-1.54c.87-.14,1.68.46,1.82,1.32l1.55,9.84c.14.87.95,1.46,1.82,1.32l14.57-2.29h0s16.75-2.64,16.75-2.64c.87-.14,1.46-.95,1.32-1.82Z"/>
  <path id="Davidson_Hall" d="M488.18,241l-19.09,3.01-19.09,3.01c-1.79.28-3.52-.19-4.88-1.18s-2.34-2.49-2.62-4.28l-11.99-76.14-11.99-76.14c-.28-1.79.19-3.52,1.18-4.88s2.49-2.34,4.28-2.62l19.09-3.01,19.09-3.01c1.79-.28,3.52.19,4.88,1.18s2.34,2.49,2.62,4.28l11.99,76.14,11.99,76.14c.28,1.79-.19,3.52-1.18,4.88s-2.49,2.34-4.28,2.62Z"/>
  <path id="Griffiths_Hall" d="M345.74,391.92l-3.01-19.09-3.01-19.09c-.28-1.79.19-3.52,1.18-4.88s2.49-2.34,4.28-2.62l76.14-11.99,76.14-11.99c1.79-.28,3.52.19,4.88,1.18s2.34,2.49,2.62,4.28l3.01,19.09,3.01,19.09c.28,1.79-.19,3.52-1.18,4.88s-2.49,2.34-4.28,2.62l-76.14,11.99-76.14,11.99c-1.79.28-3.52-.19-4.88-1.18s-2.34-2.49-2.62-4.28Z"/>
  <path id="Wada_Hall" d="M87.34,428.29l-19.09,3.01-19.09,3.01c-1.79.28-3.52-.19-4.88-1.18s-2.34-2.49-2.62-4.28l-11.99-76.14-11.99-76.14c-.28-1.79.19-3.52,1.18-4.88s2.49-2.34,4.28-2.62l19.09-3.01,19.09-3.01c1.79-.28,3.52.19,4.88,1.18s2.34,2.49,2.62,4.28l11.99,76.14,11.99,76.14c.28,1.79-.19,3.52-1.18,4.88s-2.49,2.34-4.28,2.62Z"/>
  <path id="Ehrman_Hall" d="M326.93,369.85l-2.57.41c-.56.09-1.08-.29-1.17-.85l-.26-1.64c-.09-.56.29-1.08.85-1.17l5.68-.89c.56-.09.94-.61.85-1.17l-4.51-28.64c-.09-.56-.61-.94-1.17-.85l-12.92,2.04c-.56.09-1.08-.29-1.17-.85h0c-.09-.56-.61-.94-1.17-.85l-22.66,3.57c-.56.09-.94.61-.85,1.17l.45,2.83c.09.56-.29,1.08-.85,1.17l-9.65,1.52c-.56.09-1.08-.29-1.17-.85l-1.71-10.89c-.09-.56-.61-.94-1.17-.85l-22.66,3.57c-.56.09-.94.61-.85,1.17l.62,3.93c.09.56-.29,1.08-.85,1.17l-15.27,2.41c-.56.09-.94.61-.85,1.17l.78,4.94c.09.56-.29,1.08-.85,1.17l-8.98,1.41c-.56.09-1.08-.29-1.17-.85l-1.72-10.89c-.09-.56-.61-.94-1.17-.85l-22.66,3.57c-.56.09-.94.61-.85,1.17l.78,4.93c.09.56-.29,1.08-.85,1.17l-21.72,3.42c-.56.09-.94.61-.85,1.17l.62,3.95c.09.56-.29,1.08-.85,1.17l-11.02,1.74c-.56.09-1.08-.29-1.17-.85l-.62-3.95c-.09-.56-.61-.94-1.17-.85l-19.31,3.04c-.56.09-1.08-.29-1.17-.85l-1.16-7.33c-.09-.56-.61-.94-1.17-.85l-32.34,5.09h0l-5.84.92c-.56.09-.94.61-.85,1.17l6.09,38.66c.09.56.61.94,1.17.85l2.59-.41c.56-.09,1.08.29,1.17.85l.79,4.99c.09.56.61.94,1.17.85l1.6-.25c.56-.09,1.08.29,1.17.85l4.83,30.66c.09.56.61.94,1.17.85l17.93-2.82c.56-.09.94-.61.85-1.17l-1.57-10c-.09-.56.29-1.08.85-1.17l3.13-.49c.56-.09,1.08.29,1.17.85l.31,1.96c.09.56.61.94,1.17.85l21.06-3.32c.56-.09.94-.61.85-1.17l-.31-1.96c-.09-.56.29-1.08.85-1.17l5.88-.93c.56-.09,1.08.29,1.17.85l1.78,11.3c.09.56.61.94,1.17.85l22.66-3.57c.56-.09.94-.61.85-1.17l-1.78-11.3c-.09-.56.29-1.08.85-1.17l8.5-1.34c.56-.09,1.08.29,1.17.85l1.64,10.44c.09.56.61.94,1.17.85l22.66-3.57c.56-.09.94-.61.85-1.17l-1.64-10.44c-.09-.56.29-1.08.85-1.17l25.91-4.08c.56-.09,1.08.29,1.17.85l1.52,9.65c.09.56.61.94,1.17.85l22.66-3.57c.56-.09.94-.61.85-1.17l-1.52-9.65c-.09-.56.29-1.08.85-1.17l9.65-1.52c.56-.09,1.08.29,1.17.85l1.12,7.09c.09.56.61.94,1.17.85l33.68-5.3c.56-.09.94-.61.85-1.17l-4.51-28.64c-.09-.56-.61-.94-1.17-.85Z"/>
</svg>