<?xml version="1.0" encoding="UTF-8"?>
<svg id="Layer_1" xmlns="http://www.w3.org/2000/svg" viewBox="0 0 512 512">
  <path id="Cafe_3" d="M133.99,356.77l-11.97-70.34-11.97-70.34c-.3-1.74.14-3.44,1.09-4.77s2.4-2.31,4.15-2.61l127.9-21.77,127.9-21.77c1.74-.3,3.44.14,4.77,1.09s2.31,2.4,2.61,4.15l11.97,70.34,11.97,70.34c.3,1.74-.14,3.44-1.09,4.77s-2.4,2.31-4.15,2.61l-127.9,21.77-127.9,21.77c-1.74.3-3.44-.14-4.77-1.09s-2.31-2.4-2.61-4.15Z"/>
  <path id="Norton_Hall" d="M8.92,197.9l-3.92-23.06-3.92-23.06c-.3-1.74.14-3.44,1.09-4.77s2.4-2.31,4.15-2.61l72.81-12.39,72.81-12.39c1.74-.3,3.44.14,4.77,1.09s2.31,2.4,2.61,4.15l3.92,23.06,3.92,23.06c.3,1.74-.14,3.44-1.09,4.77s-2.4,2.31-4.15,2.61l-72.81,12.39-72.81,12.39c-1.74.3-3.44-.14-4.77-1.09s-2.31-2.4-2.61-4.15Z"/>
  <path id="Spens_Black_Hall" d="M312.07,146.31l-3.92-23.06-3.92-23.06c-.3-1.74.14-3.44,1.09-4.77s2.4-2.31,4.15-2.61l72.81-12.39,72.81-12.39c1.74-.3,3.44.14,4.77,1.09s2.31,2.4,2.61,4.15l3.92,23.06,3.92,23.06c.3,1.74-.14,3.44-1.09,4.77s-2.4,2.31-4.15,2.61l-72.81,12.39-72.81,12.39c-1.74.3-3.44-.14-4.77-1.09s-2.31-2.4-2.61-4.15Z"/>
  <path id="Priestly_Hall" d="M352.69,400.83l-3.92-23.06-3.92-23.06c-.3-1.74.14-3.44,1.09-4.77s2.4-2.31,4.15-2.61l72.81-12.39,72.81-12.39c1.74-.3,3.44.14,4.77,1.09s2.31,2.4,2.61,4.15l3.92,23.06,3.92,23.06c.3,1.74-.14,3.44-1.09,4.77s-2.4,2.31-4.15,2.61l-72.81,12.39-72.81,12.39c-1.74.3-3.44-.14-4.77-1.09s-2.31-2.4-2.61-4.15Z"/>
  <path id="Ida_Sproul_Hall" d="M88.37,436.12l-23.06,3.92-23.06,3.92c-1.74.3-3.44-.14-4.77-1.09s-2.31-2.4-2.61-4.15l-12.39-72.81-12.39-72.81c-.3-1.74.14-3.44,1.09-4.77s2.4-2.31,4.15-2.61l23.06-3.92,23.06-3.92c1.74-.3,3.44.14,4.77,1.09s2.31,2.4,2.61,4.15l12.39,72.81,12.39,72.81c.3,1.74-.14,3.44-1.09,4.77s-2.4,2.31-4.15,2.61Z"/>
</svg>